<svg width="19" height="20" viewBox="0 0 19 20" fill="none" xmlns="http://www.w3.org/2000/svg">
<path fill-rule="evenodd" clip-rule="evenodd" d="M2.49885 5.21772C2.93838 4.77818 3.53453 4.53125 4.15613 4.53125H13.5311C14.1527 4.53125 14.7489 4.77818 15.1884 5.21772C15.6279 5.65726 15.8749 6.2534 15.8749 6.875V7.00904C16.2014 7.12448 16.5014 7.31193 16.7509 7.56147C17.1904 8.00101 17.4374 8.59715 17.4374 9.21875V10.7812C17.4374 11.4029 17.1904 11.999 16.7509 12.4385C16.5014 12.6881 16.2014 12.8755 15.8749 12.991V13.125C15.8749 13.7466 15.6279 14.3427 15.1884 14.7823C14.7489 15.2218 14.1527 15.4688 13.5311 15.4688H4.15613C3.53453 15.4688 2.93838 15.2218 2.49885 14.7823C2.05931 14.3427 1.81238 13.7466 1.81238 13.125V6.875C1.81238 6.2534 2.05931 5.65726 2.49885 5.21772ZM4.15613 6.09375C3.94893 6.09375 3.75021 6.17606 3.6037 6.32257C3.45719 6.46909 3.37488 6.6678 3.37488 6.875V13.125C3.37488 13.3322 3.45719 13.5309 3.6037 13.6774C3.75021 13.8239 3.94893 13.9062 4.15613 13.9062H13.5311C13.7383 13.9062 13.937 13.8239 14.0836 13.6774C14.2301 13.5309 14.3124 13.3322 14.3124 13.125V12.3437C14.3124 11.9123 14.6622 11.5625 15.0936 11.5625C15.3008 11.5625 15.4995 11.4802 15.6461 11.3337C15.7926 11.1872 15.8749 10.9884 15.8749 10.7812V9.21875C15.8749 9.01155 15.7926 8.81284 15.6461 8.66632C15.4995 8.51981 15.3008 8.4375 15.0936 8.4375C14.6622 8.4375 14.3124 8.08772 14.3124 7.65625V6.875C14.3124 6.6678 14.2301 6.46909 14.0836 6.32257C13.937 6.17606 13.7383 6.09375 13.5311 6.09375H4.15613Z" fill="#2F2A28" style="fill:#2F2A28;fill:color(display-p3 0.1833 0.1627 0.1581);fill-opacity:1;"/>
<path d="M4.5 7.5C4.5 7.22386 4.72386 7 5 7H11.5C11.7761 7 12 7.22386 12 7.5V12.5C12 12.7761 11.7761 13 11.5 13H5C4.72386 13 4.5 12.7761 4.5 12.5V7.5Z" fill="#2F2A28" style="fill:#2F2A28;fill:color(display-p3 0.1833 0.1627 0.1581);fill-opacity:1;"/>
</svg>
