<svg width="19" height="19" viewBox="0 0 19 19" fill="none" xmlns="http://www.w3.org/2000/svg">
<path d="M3 12.2C3 12.0895 3.08954 12 3.2 12H4.8C4.91046 12 5 12.0895 5 12.2V15.8C5 15.9105 4.91046 16 4.8 16H3.2C3.08954 16 3 15.9105 3 15.8V12.2Z" fill="#2F2A28" style="fill:#2F2A28;fill:color(display-p3 0.1833 0.1627 0.1581);fill-opacity:1;"/>
<path d="M6 10.2C6 10.0895 6.08954 10 6.2 10H7.8C7.91046 10 8 10.0895 8 10.2V15.8C8 15.9105 7.91046 16 7.8 16H6.2C6.08954 16 6 15.9105 6 15.8V10.2Z" fill="#2F2A28" style="fill:#2F2A28;fill:color(display-p3 0.1833 0.1627 0.1581);fill-opacity:1;"/>
<path d="M9 7.2C9 7.08954 9.08954 7 9.2 7H10.8C10.9105 7 11 7.08954 11 7.2V15.8C11 15.9105 10.9105 16 10.8 16H9.2C9.08954 16 9 15.9105 9 15.8V7.2Z" fill="#2F2A28" style="fill:#2F2A28;fill:color(display-p3 0.1833 0.1627 0.1581);fill-opacity:1;"/>
<path d="M12 4.2C12 4.08954 12.0895 4 12.2 4H13.8C13.9105 4 14 4.08954 14 4.2V15.8C14 15.9105 13.9105 16 13.8 16H12.2C12.0895 16 12 15.9105 12 15.8V4.2Z" fill="#2F2A28" style="fill:#2F2A28;fill:color(display-p3 0.1833 0.1627 0.1581);fill-opacity:1;"/>
</svg>
