<svg width="14" height="14" viewBox="0 0 14 14" fill="none" xmlns="http://www.w3.org/2000/svg">
<path d="M7.29163 9.91667H2.91663C2.91663 9.33333 2.92235 9.48453 3.12499 9.18057C3.32762 8.87662 3.45606 8.52933 3.49996 8.16667V6.41667C3.5347 5.67646 3.77022 4.95966 4.18126 4.34309C4.59231 3.72652 5.16339 3.23343 5.83329 2.91667C5.83329 2.60725 5.95621 2.3105 6.175 2.09171C6.39379 1.87292 6.69054 1.75 6.99996 1.75C7.30938 1.75 7.60612 1.87292 7.82492 2.09171C8.04371 2.3105 8.16663 2.60725 8.16663 2.91667C8.83653 3.23343 9.40761 3.72652 9.81866 4.34309C10.2297 4.95966 10.4652 5.67646 10.5 6.41667V7M5.24996 9.91667V10.5C5.2499 10.755 5.30559 11.007 5.41311 11.2382C5.52064 11.4695 5.67741 11.6744 5.87245 11.8388C6.06749 12.0031 6.29609 12.1228 6.54224 12.1895C6.78839 12.2562 7.04614 12.2683 7.29746 12.2249M9.33329 11.0833H12.8333M11.0833 9.33333V12.8333" stroke="#98A5B3" style="stroke:#98A5B3;stroke:color(display-p3 0.5961 0.6471 0.7020);stroke-opacity:1;" stroke-width="1.5" stroke-linecap="round" stroke-linejoin="round"/>
</svg>
