<svg width="14" height="14" viewBox="0 0 14 14" fill="none" xmlns="http://www.w3.org/2000/svg">
<path d="M7 7C7.81223 7 8.59118 6.67734 9.16551 6.10301C9.73984 5.52868 10.0625 4.74973 10.0625 3.9375C10.0625 3.12527 9.73984 2.34632 9.16551 1.77199C8.59118 1.19766 7.81223 0.875 7 0.875C6.18777 0.875 5.40882 1.19766 4.83449 1.77199C4.26016 2.34632 3.9375 3.12527 3.9375 3.9375C3.9375 4.74973 4.26016 5.52868 4.83449 6.10301C5.40882 6.67734 6.18777 7 7 7ZM3.28125 7.875C2.87514 7.875 2.48566 8.03633 2.19849 8.32349C1.91133 8.61066 1.75 9.00014 1.75 9.40625V9.625C1.75 10.6719 2.41631 11.5574 3.36219 12.1594C4.31331 12.7649 5.60087 13.125 7 13.125C8.39913 13.125 9.68625 12.7649 10.6378 12.1594C11.5837 11.5574 12.25 10.6719 12.25 9.625V9.40625C12.25 9.00014 12.0887 8.61066 11.8015 8.32349C11.5143 8.03633 11.1249 7.875 10.7188 7.875H3.28125Z" fill="#98A5B3" style="fill:#98A5B3;fill:color(display-p3 0.5961 0.6471 0.7020);fill-opacity:1;"/>
</svg>
