<svg width="14" height="15" viewBox="0 0 14 15" fill="none" xmlns="http://www.w3.org/2000/svg">
<path d="M7 7.5C7.81223 7.5 8.59118 7.17734 9.16551 6.60301C9.73984 6.02868 10.0625 5.24973 10.0625 4.4375C10.0625 3.62527 9.73984 2.84632 9.16551 2.27199C8.59118 1.69766 7.81223 1.375 7 1.375C6.18777 1.375 5.40882 1.69766 4.83449 2.27199C4.26016 2.84632 3.9375 3.62527 3.9375 4.4375C3.9375 5.24973 4.26016 6.02868 4.83449 6.60301C5.40882 7.17734 6.18777 7.5 7 7.5ZM3.28125 8.375C2.87514 8.375 2.48566 8.53633 2.19849 8.82349C1.91133 9.11066 1.75 9.50014 1.75 9.90625V10.125C1.75 11.1719 2.41631 12.0574 3.36219 12.6594C4.31331 13.2649 5.60087 13.625 7 13.625C8.39913 13.625 9.68625 13.2649 10.6378 12.6594C11.5837 12.0574 12.25 11.1719 12.25 10.125V9.90625C12.25 9.50014 12.0887 9.11066 11.8015 8.82349C11.5143 8.53633 11.1249 8.375 10.7188 8.375H3.28125Z" fill="#98A5B3" style="fill:#98A5B3;fill:color(display-p3 0.5961 0.6471 0.7020);fill-opacity:1;"/>
</svg>
