<svg width="19" height="19" viewBox="0 0 19 19" fill="none" xmlns="http://www.w3.org/2000/svg">
<path d="M9.11092 16.0285C9.0072 16.0285 8.76604 15.8366 8.38746 15.4529C8.00887 15.0691 7.81958 14.825 7.81958 14.7206C7.81958 14.5535 7.98165 14.4125 8.30578 14.2976C8.62991 14.1828 8.89829 14.1253 9.11092 14.1253C9.32355 14.1253 9.59193 14.1828 9.91606 14.2976C10.2402 14.4125 10.4023 14.5535 10.4023 14.7206C10.4023 14.825 10.213 15.0691 9.83438 15.4529C9.45579 15.8366 9.21464 16.0285 9.11092 16.0285ZM11.2113 13.906C11.2009 13.906 11.0972 13.8408 10.9001 13.7102C10.703 13.5797 10.4399 13.4491 10.1105 13.3186C9.78122 13.1881 9.44801 13.1228 9.11092 13.1228C8.77382 13.1228 8.44062 13.1881 8.1113 13.3186C7.78198 13.4491 7.52008 13.5797 7.32561 13.7102C7.13113 13.8408 7.02611 13.906 7.01055 13.906C6.9172 13.906 6.67475 13.7102 6.2832 13.3186C5.89165 12.927 5.69588 12.6842 5.69588 12.5902C5.69588 12.5224 5.72181 12.4623 5.77367 12.4101C6.17818 12.008 6.68642 11.6922 7.29838 11.4624C7.91034 11.2327 8.51452 11.1178 9.11092 11.1178C9.70732 11.1178 10.3115 11.2327 10.9235 11.4624C11.5354 11.6922 12.0437 12.008 12.4482 12.4101C12.5 12.4623 12.526 12.5224 12.526 12.5902C12.526 12.6842 12.3302 12.927 11.9386 13.3186C11.5471 13.7102 11.3046 13.906 11.2113 13.906ZM13.335 11.7757C13.2779 11.7757 13.2183 11.7548 13.1561 11.713C12.4508 11.1648 11.7973 10.7614 11.1957 10.503C10.5941 10.2445 9.8992 10.1153 9.11092 10.1153C8.6701 10.1153 8.22799 10.1727 7.78457 10.2876C7.34116 10.4025 6.9548 10.5408 6.62548 10.7027C6.29617 10.8646 6.00185 11.0264 5.74255 11.1883C5.48325 11.3502 5.27839 11.4885 5.128 11.6034C4.9776 11.7183 4.89722 11.7757 4.88684 11.7757C4.79868 11.7757 4.56012 11.5799 4.17116 11.1883C3.78221 10.7967 3.58773 10.5539 3.58773 10.4599C3.58773 10.3973 3.61366 10.3398 3.66552 10.2876C4.35008 9.59839 5.17986 9.0632 6.15484 8.68203C7.12983 8.30087 8.11519 8.11029 9.11092 8.11029C10.1066 8.11029 11.092 8.30087 12.067 8.68203C13.042 9.0632 13.8718 9.59839 14.5563 10.2876C14.6082 10.3398 14.6341 10.3973 14.6341 10.4599C14.6341 10.5539 14.4396 10.7967 14.0507 11.1883C13.6617 11.5799 13.4232 11.7757 13.335 11.7757ZM15.4431 9.65321C15.3861 9.65321 15.329 9.62971 15.272 9.58272C14.3437 8.76297 13.3804 8.14554 12.382 7.73044C11.3837 7.31534 10.2933 7.10779 9.11092 7.10779C7.92849 7.10779 6.83811 7.31534 5.83979 7.73044C4.84147 8.14554 3.87815 8.76297 2.94984 9.58272C2.89279 9.62971 2.83574 9.65321 2.7787 9.65321C2.69053 9.65321 2.45068 9.45741 2.05913 9.06581C1.66758 8.6742 1.4718 8.43141 1.4718 8.33742C1.4718 8.26955 1.49773 8.2095 1.54959 8.15729C2.51939 7.18611 3.6733 6.43423 5.01131 5.90165C6.34932 5.36907 7.71586 5.10278 9.11092 5.10278C10.506 5.10278 11.8725 5.36907 13.2105 5.90165C14.5485 6.43423 15.7024 7.18611 16.6722 8.15729C16.7241 8.2095 16.75 8.26955 16.75 8.33742C16.75 8.43141 16.5543 8.6742 16.1627 9.06581C15.7712 9.45741 15.5313 9.65321 15.4431 9.65321Z" fill="#2F2A28" style="fill:#2F2A28;fill:color(display-p3 0.1833 0.1627 0.1581);fill-opacity:1;"/>
</svg>
