<svg width="31" height="10" viewBox="0 0 31 10" fill="none" xmlns="http://www.w3.org/2000/svg">
<path d="M3.46023 0.62359V9.35086H2.1392V1.94461H2.08807L0 3.30825V2.04689L2.17756 0.62359H3.46023Z" fill="#2F2A28" style="fill:#2F2A28;fill:color(display-p3 0.1833 0.1627 0.1581);fill-opacity:1;"/>
<path d="M5.82102 9.35086V8.39632L8.77415 5.33666C9.08949 5.00427 9.34943 4.71308 9.55398 4.46308C9.76136 4.21024 9.91619 3.97018 10.0185 3.74291C10.1207 3.51564 10.1719 3.27416 10.1719 3.01848C10.1719 2.7287 10.1037 2.4787 9.96733 2.26848C9.83097 2.05541 9.64489 1.89206 9.40909 1.77842C9.1733 1.66194 8.90767 1.6037 8.61222 1.6037C8.29972 1.6037 8.02699 1.66762 7.79403 1.79547C7.56108 1.92331 7.3821 2.1037 7.2571 2.33666C7.1321 2.56961 7.0696 2.84234 7.0696 3.15484H5.8125C5.8125 2.62359 5.93466 2.1591 6.17898 1.76137C6.4233 1.36365 6.75852 1.05541 7.18466 0.836658C7.6108 0.615067 8.09517 0.504272 8.63778 0.504272C9.18608 0.504272 9.66903 0.613647 10.0866 0.832397C10.5071 1.04831 10.8352 1.34376 11.071 1.71876C11.3068 2.09092 11.4247 2.51137 11.4247 2.98012C11.4247 3.30399 11.3636 3.62075 11.2415 3.93041C11.1222 4.24007 10.9134 4.58524 10.6151 4.96592C10.3168 5.34376 9.90199 5.80257 9.37074 6.34234L7.63636 8.15768V8.2216H11.5653V9.35086H5.82102Z" fill="#2F2A28" style="fill:#2F2A28;fill:color(display-p3 0.1833 0.1627 0.1581);fill-opacity:1;"/>
<path d="M14.0369 8.26848C13.804 8.26848 13.6037 8.18609 13.4361 8.02132C13.2685 7.8537 13.1847 7.652 13.1847 7.4162C13.1847 7.18325 13.2685 6.98439 13.4361 6.81961C13.6037 6.652 13.804 6.56819 14.0369 6.56819C14.2699 6.56819 14.4702 6.652 14.6378 6.81961C14.8054 6.98439 14.8892 7.18325 14.8892 7.4162C14.8892 7.57245 14.8494 7.71592 14.7699 7.8466C14.6932 7.97444 14.5909 8.07672 14.4631 8.15342C14.3352 8.23012 14.1932 8.26848 14.0369 8.26848ZM14.0369 3.89632C13.804 3.89632 13.6037 3.81393 13.4361 3.64916C13.2685 3.48154 13.1847 3.27984 13.1847 3.04405C13.1847 2.81109 13.2685 2.61223 13.4361 2.44745C13.6037 2.27984 13.804 2.19603 14.0369 2.19603C14.2699 2.19603 14.4702 2.27984 14.6378 2.44745C14.8054 2.61223 14.8892 2.81109 14.8892 3.04405C14.8892 3.2003 14.8494 3.34376 14.7699 3.47444C14.6932 3.60228 14.5909 3.70456 14.4631 3.78126C14.3352 3.85797 14.1932 3.89632 14.0369 3.89632Z" fill="#2F2A28" style="fill:#2F2A28;fill:color(display-p3 0.1833 0.1627 0.1581);fill-opacity:1;"/>
<path d="M19.6172 9.47018C19.032 9.47018 18.5092 9.36933 18.049 9.16762C17.5916 8.96592 17.2294 8.68609 16.9624 8.32814C16.6982 7.96734 16.5561 7.54973 16.5362 7.0753H17.8743C17.8913 7.33382 17.978 7.55825 18.1342 7.74859C18.2933 7.93609 18.5007 8.08098 18.7564 8.18325C19.0121 8.28552 19.2962 8.33666 19.6087 8.33666C19.9524 8.33666 20.2564 8.277 20.5206 8.15768C20.7876 8.03836 20.9965 7.87217 21.147 7.6591C21.2976 7.44319 21.3729 7.19461 21.3729 6.91336C21.3729 6.62075 21.2976 6.36365 21.147 6.14206C20.9993 5.91762 20.782 5.74149 20.495 5.61365C20.2109 5.48581 19.8672 5.42189 19.4638 5.42189H18.7266V4.34802H19.4638C19.7876 4.34802 20.0717 4.28978 20.3161 4.17331C20.5632 4.05683 20.7564 3.8949 20.8956 3.68751C21.0348 3.47728 21.1044 3.23155 21.1044 2.9503C21.1044 2.68041 21.0433 2.44603 20.9212 2.24717C20.8018 2.04547 20.6314 1.88779 20.4098 1.77416C20.1911 1.66052 19.9325 1.6037 19.6342 1.6037C19.3501 1.6037 19.0845 1.65626 18.8374 1.76137C18.593 1.86365 18.3942 2.01137 18.2408 2.20456C18.0874 2.3949 18.005 2.62359 17.9936 2.89064H16.7195C16.7337 2.41904 16.8729 2.00427 17.1371 1.64632C17.4041 1.28836 17.7564 1.00853 18.1939 0.806829C18.6314 0.605124 19.1172 0.504272 19.6513 0.504272C20.2109 0.504272 20.6939 0.613647 21.1001 0.832397C21.5092 1.04831 21.8246 1.33666 22.0462 1.69745C22.2706 2.05825 22.3814 2.45314 22.3786 2.88211C22.3814 3.37075 22.245 3.78552 21.9695 4.12643C21.6967 4.46734 21.3331 4.69603 20.8786 4.81251V4.88069C21.4581 4.96876 21.907 5.19887 22.2251 5.57103C22.5462 5.94319 22.7053 6.40484 22.7024 6.95598C22.7053 7.43609 22.5717 7.86649 22.3018 8.24717C22.0348 8.62785 21.6697 8.92757 21.2067 9.14632C20.7436 9.36223 20.2138 9.47018 19.6172 9.47018Z" fill="#2F2A28" style="fill:#2F2A28;fill:color(display-p3 0.1833 0.1627 0.1581);fill-opacity:1;"/>
<path d="M27.3516 9.49575C26.6783 9.49291 26.103 9.31535 25.6257 8.96308C25.1484 8.61081 24.7834 8.09802 24.5305 7.42473C24.2777 6.75143 24.1513 5.94035 24.1513 4.99149C24.1513 4.04547 24.2777 3.23723 24.5305 2.56677C24.7862 1.89632 25.1527 1.38495 25.63 1.03268C26.1101 0.680408 26.6839 0.504272 27.3516 0.504272C28.0192 0.504272 28.5916 0.681829 29.0689 1.03694C29.5462 1.38922 29.9112 1.90058 30.1641 2.57103C30.4197 3.23865 30.5476 4.04547 30.5476 4.99149C30.5476 5.94319 30.4212 6.75569 30.1683 7.42899C29.9155 8.09944 29.5504 8.61223 29.0732 8.96734C28.5959 9.31961 28.022 9.49575 27.3516 9.49575ZM27.3516 8.35797C27.9425 8.35797 28.4041 8.06961 28.7365 7.49291C29.0717 6.9162 29.2393 6.0824 29.2393 4.99149C29.2393 4.26706 29.1626 3.65484 29.0092 3.15484C28.8587 2.652 28.6413 2.27132 28.3572 2.0128C28.076 1.75143 27.7408 1.62075 27.3516 1.62075C26.7635 1.62075 26.3018 1.91052 25.9666 2.49007C25.6314 3.06961 25.4624 3.90342 25.4595 4.99149C25.4595 5.71876 25.5348 6.33382 25.6854 6.83666C25.8388 7.33666 26.0561 7.71592 26.3374 7.97444C26.6186 8.23012 26.9567 8.35797 27.3516 8.35797Z" fill="#2F2A28" style="fill:#2F2A28;fill:color(display-p3 0.1833 0.1627 0.1581);fill-opacity:1;"/>
</svg>
