<svg width="62" height="29" viewBox="0 0 62 29" fill="none" xmlns="http://www.w3.org/2000/svg">
<path d="M2.60797 2.4C2.60797 2.60267 2.65597 2.76 2.75197 2.872C2.8533 2.97867 3.05063 3.032 3.34397 3.032H5.32797C5.51463 3.032 5.64797 3.09067 5.72797 3.208C5.8133 3.32533 5.85597 3.46133 5.85597 3.616C5.85597 3.77067 5.8133 3.89867 5.72797 4C5.64797 4.10133 5.51463 4.152 5.32797 4.152H3.19197C2.59463 4.152 2.14397 3.99467 1.83997 3.68C1.5413 3.36533 1.39197 2.92267 1.39197 2.352V1.856C1.39197 1.28533 1.5413 0.848 1.83997 0.544C2.14397 0.24 2.59463 0.0879998 3.19197 0.0879998H5.24797C5.43463 0.0879998 5.56797 0.138666 5.64797 0.24C5.7333 0.336 5.77597 0.466667 5.77597 0.632C5.77597 0.797333 5.7333 0.936 5.64797 1.048C5.56797 1.15467 5.43463 1.208 5.24797 1.208H3.34397C3.05063 1.208 2.8533 1.25867 2.75197 1.36C2.65597 1.456 2.60797 1.60533 2.60797 1.808V2.4ZM1.70397 5.096C1.70397 4.90933 1.7653 4.77867 1.88797 4.704C2.01063 4.624 2.15463 4.584 2.31997 4.584C2.4853 4.584 2.62663 4.624 2.74397 4.704C2.8613 4.77867 2.91997 4.90933 2.91997 5.096V5.584C2.91997 5.84 2.97863 6.01333 3.09597 6.104C3.2133 6.2 3.41863 6.248 3.71197 6.248H7.05597C7.24263 6.248 7.37863 6.304 7.46397 6.416C7.5493 6.53333 7.59197 6.66933 7.59197 6.824C7.59197 6.984 7.5493 7.112 7.46397 7.208C7.37863 7.30933 7.24263 7.36 7.05597 7.36H3.51997C2.93863 7.36 2.49063 7.21067 2.17597 6.912C1.8613 6.61333 1.70397 6.168 1.70397 5.576V5.096ZM7.49597 2.704V4.712C7.49597 4.89333 7.43463 5.024 7.31197 5.104C7.1893 5.17867 7.0453 5.216 6.87997 5.216C6.71463 5.216 6.5733 5.17867 6.45597 5.104C6.33863 5.024 6.27997 4.89333 6.27997 4.712V0.52C6.27997 0.338667 6.33863 0.210667 6.45597 0.136C6.5733 0.0559999 6.71463 0.0159998 6.87997 0.0159998C7.0453 0.0159998 7.1893 0.0533331 7.31197 0.128C7.43463 0.202666 7.49597 0.333333 7.49597 0.52V1.584H8.05597C8.24263 1.584 8.37597 1.63733 8.45597 1.744C8.5413 1.84533 8.58397 1.97333 8.58397 2.128C8.58397 2.28267 8.5413 2.41867 8.45597 2.536C8.37597 2.648 8.24263 2.704 8.05597 2.704H7.49597Z" fill="url(#paint0_linear_105_338)" style=""/>
<path d="M9.35166 6.008C9.35166 5.544 9.57032 5.20533 10.0077 4.992C10.445 4.77333 11.0743 4.64267 11.8957 4.6V4.328H9.49566C9.30899 4.328 9.17032 4.28 9.07966 4.184C8.98899 4.08267 8.94366 3.94667 8.94366 3.776C8.94366 3.61067 8.99165 3.48533 9.08766 3.4C9.18366 3.31467 9.31965 3.272 9.49566 3.272H15.5437C15.7197 3.272 15.8557 3.31467 15.9517 3.4C16.0477 3.48533 16.0957 3.61067 16.0957 3.776C16.0957 3.94667 16.0503 4.08267 15.9597 4.184C15.869 4.28 15.7303 4.328 15.5437 4.328H13.1117V4.6C13.5223 4.616 13.8877 4.656 14.2077 4.72C14.5277 4.784 14.797 4.872 15.0157 4.984C15.2343 5.096 15.3997 5.23733 15.5117 5.408C15.6237 5.57867 15.6797 5.77867 15.6797 6.008C15.6797 6.26933 15.6077 6.49067 15.4637 6.672C15.325 6.85333 15.1197 7 14.8477 7.112C14.581 7.224 14.2503 7.304 13.8557 7.352C13.4663 7.40533 13.0183 7.432 12.5117 7.432C12.005 7.432 11.5543 7.40533 11.1597 7.352C10.7703 7.304 10.4397 7.224 10.1677 7.112C9.90099 7 9.69832 6.85333 9.55966 6.672C9.42099 6.49067 9.35166 6.26933 9.35166 6.008ZM14.7197 1.12V1.936H15.0717C15.2477 1.936 15.3837 1.97867 15.4797 2.064C15.5757 2.144 15.6237 2.26667 15.6237 2.432C15.6237 2.60267 15.5783 2.736 15.4877 2.832C15.397 2.928 15.2583 2.976 15.0717 2.976H9.96766C9.78099 2.976 9.64232 2.928 9.55165 2.832C9.46099 2.736 9.41566 2.60267 9.41566 2.432C9.41566 2.26667 9.46366 2.144 9.55966 2.064C9.65565 1.97867 9.79166 1.936 9.96766 1.936H10.3197V1.12H9.96766C9.78099 1.12 9.64232 1.072 9.55165 0.976C9.46099 0.88 9.41566 0.746667 9.41566 0.576C9.41566 0.410667 9.46366 0.288 9.55966 0.208C9.65565 0.122667 9.79166 0.0799999 9.96766 0.0799999H15.0717C15.2477 0.0799999 15.3837 0.122667 15.4797 0.208C15.5757 0.288 15.6237 0.410667 15.6237 0.576C15.6237 0.746667 15.5783 0.88 15.4877 0.976C15.397 1.072 15.2583 1.12 15.0717 1.12H14.7197ZM10.5677 6.008C10.5677 6.136 10.717 6.224 11.0157 6.272C11.3197 6.32533 11.8183 6.352 12.5117 6.352C13.205 6.352 13.701 6.32533 13.9997 6.272C14.3037 6.224 14.4557 6.136 14.4557 6.008C14.4557 5.88 14.3037 5.792 13.9997 5.744C13.701 5.69067 13.205 5.664 12.5117 5.664C11.8183 5.664 11.3197 5.69067 11.0157 5.744C10.717 5.792 10.5677 5.88 10.5677 6.008ZM11.5357 1.936H13.5037V1.12H11.5357V1.936Z" fill="url(#paint1_linear_105_338)" style=""/>
<path d="M17.9433 2.52H19.8793V0.56C19.8793 0.384 19.9353 0.256 20.0473 0.176C20.1647 0.0906666 20.3007 0.0479999 20.4553 0.0479999C20.61 0.0479999 20.7513 0.088 20.8793 0.168C21.0073 0.242667 21.0713 0.373333 21.0713 0.56V5.52C21.0713 6 20.9673 6.33867 20.7593 6.536C20.5567 6.73867 20.2447 6.84 19.8233 6.84H17.9993C17.578 6.84 17.2633 6.73867 17.0553 6.536C16.8527 6.33867 16.7513 6 16.7513 5.52V0.56C16.7513 0.384 16.8073 0.256 16.9193 0.176C17.0367 0.0906666 17.1727 0.0479999 17.3273 0.0479999C17.482 0.0479999 17.6233 0.088 17.7513 0.168C17.8793 0.242667 17.9433 0.373333 17.9433 0.56V2.52ZM22.8553 3.848V6.72C22.8553 6.90133 22.794 7.02933 22.6713 7.104C22.5487 7.184 22.4047 7.224 22.2393 7.224C22.074 7.224 21.9327 7.184 21.8153 7.104C21.698 7.02933 21.6393 6.90133 21.6393 6.72V0.504C21.6393 0.322667 21.698 0.194667 21.8153 0.12C21.9327 0.04 22.074 0 22.2393 0C22.4047 0 22.5487 0.0373333 22.6713 0.112C22.794 0.186667 22.8553 0.317333 22.8553 0.504V2.728H23.4153C23.602 2.728 23.7353 2.78133 23.8153 2.888C23.9007 2.98933 23.9433 3.11733 23.9433 3.272C23.9433 3.42667 23.9007 3.56267 23.8153 3.68C23.7353 3.792 23.602 3.848 23.4153 3.848H22.8553ZM19.8793 3.64H17.9433V5.264C17.9433 5.43467 17.9807 5.55733 18.0553 5.632C18.1353 5.70133 18.2607 5.736 18.4313 5.736H19.3913C19.562 5.736 19.6847 5.70133 19.7593 5.632C19.8393 5.55733 19.8793 5.43467 19.8793 5.264V3.64Z" fill="url(#paint2_linear_105_338)" style=""/>
<path d="M24.735 5.232C24.735 4.976 24.799 4.80533 24.927 4.72C25.055 4.62933 25.2497 4.584 25.511 4.584H29.759C30.0204 4.584 30.215 4.62933 30.343 4.72C30.471 4.80533 30.535 4.976 30.535 5.232V6.704C30.535 6.96 30.471 7.13067 30.343 7.216C30.215 7.30667 30.0204 7.352 29.759 7.352H25.511C25.2497 7.352 25.055 7.30667 24.927 7.216C24.799 7.13067 24.735 6.96 24.735 6.704V5.232ZM27.215 1.6C27.3377 1.6 27.431 1.592 27.495 1.576C27.559 1.55467 27.591 1.496 27.591 1.4C27.591 1.30933 27.5564 1.25333 27.487 1.232C27.423 1.21067 27.3297 1.2 27.207 1.2H24.919C24.7324 1.2 24.6017 1.14667 24.527 1.04C24.4577 0.928 24.423 0.8 24.423 0.656C24.423 0.506667 24.4577 0.376 24.527 0.264C24.6017 0.146667 24.7324 0.0879998 24.919 0.0879998H27.351C27.559 0.0879998 27.751 0.106667 27.927 0.144C28.1084 0.181333 28.263 0.248 28.391 0.344C28.5244 0.44 28.6257 0.570667 28.695 0.736C28.7697 0.896 28.807 1.10133 28.807 1.352C28.807 1.77333 28.6844 2.09333 28.439 2.312C28.1937 2.53067 27.8604 2.64 27.439 2.64H25.983C25.8604 2.64 25.7644 2.65333 25.695 2.68C25.631 2.70667 25.599 2.76267 25.599 2.848C25.599 2.944 25.6337 3 25.703 3.016C25.7724 3.032 25.8684 3.04 25.991 3.04H28.399C28.5857 3.04 28.7137 3.09333 28.783 3.2C28.8577 3.30667 28.895 3.44267 28.895 3.608C28.895 3.752 28.8577 3.88 28.783 3.992C28.7137 4.09867 28.5857 4.152 28.399 4.152H25.855C25.647 4.152 25.4524 4.13333 25.271 4.096C25.095 4.05867 24.9404 3.992 24.807 3.896C24.679 3.8 24.5777 3.672 24.503 3.512C24.4284 3.34667 24.391 3.13867 24.391 2.888C24.391 2.46667 24.5137 2.14667 24.759 1.928C25.0097 1.70933 25.3457 1.6 25.767 1.6H27.215ZM30.535 2.704V3.792C30.535 3.97333 30.4737 4.104 30.351 4.184C30.2284 4.25867 30.0844 4.296 29.919 4.296C29.7537 4.296 29.6124 4.25867 29.495 4.184C29.3777 4.104 29.319 3.97333 29.319 3.792V0.52C29.319 0.338667 29.3777 0.210667 29.495 0.136C29.6124 0.0559999 29.7537 0.0159998 29.919 0.0159998C30.0844 0.0159998 30.2284 0.0533331 30.351 0.128C30.4737 0.202666 30.535 0.333333 30.535 0.52V1.584H40.295C40.4817 1.584 40.615 1.63733 40.695 1.744C40.7804 1.84533 40.823 1.97333 40.823 2.128C40.823 2.28267 40.7804 2.41867 40.695 2.536C40.615 2.648 40.4817 2.704 40.295 2.704H30.535ZM26.175 5.68C26.0844 5.68 26.023 5.69067 25.991 5.712C25.959 5.728 25.943 5.77333 25.943 5.848V6.096C25.943 6.17067 25.959 6.216 25.991 6.232C26.023 6.248 26.0844 6.256 26.175 6.256H29.095C29.1857 6.256 29.247 6.248 29.279 6.232C29.311 6.216 29.327 6.17067 29.327 6.096V5.848C29.327 5.77333 29.311 5.728 29.279 5.712C29.247 5.69067 29.1857 5.68 29.095 5.68H26.175Z" fill="url(#paint3_linear_105_338)" style=""/>
<mask id="path-2-outside-1_105_338" maskUnits="userSpaceOnUse" x="0" y="10" width="62" height="19" fill="black">
<rect fill="white" y="10" width="62" height="19"/>
<path d="M11.888 25.088C11.888 25.4293 11.7973 25.7013 11.616 25.904C11.4347 26.1067 11.1893 26.208 10.88 26.208H9.728C9.41867 26.208 9.17333 26.1067 8.992 25.904C8.81067 25.7013 8.72 25.4293 8.72 25.088V21.2H8.352V25.088C8.352 25.4293 8.26133 25.7013 8.08 25.904C7.89867 26.1067 7.65333 26.208 7.344 26.208H3.008C2.69867 26.208 2.45333 26.1067 2.272 25.904C2.09067 25.7013 2 25.4293 2 25.088V13.12C2 12.7787 2.09067 12.5067 2.272 12.304C2.45333 12.1013 2.69867 12 3.008 12H7.344C7.65333 12 7.89867 12.1013 8.08 12.304C8.26133 12.5067 8.352 12.7787 8.352 13.12V16.528H8.72V13.12C8.72 12.7787 8.81067 12.5067 8.992 12.304C9.17333 12.1013 9.41867 12 9.728 12H10.88C11.1893 12 11.4347 12.1013 11.616 12.304C11.7973 12.5067 11.888 12.7787 11.888 13.12V25.088ZM15.408 25.088C15.408 25.4293 15.3173 25.7013 15.136 25.904C14.9547 26.1067 14.7093 26.208 14.4 26.208H13.248C12.9493 26.208 12.704 26.1067 12.512 25.904C12.3307 25.7013 12.24 25.4293 12.24 25.088V13.12C12.24 12.7787 12.3307 12.5067 12.512 12.304C12.704 12.1013 12.9493 12 13.248 12H14.4C14.7093 12 14.9547 12.1013 15.136 12.304C15.3173 12.5067 15.408 12.7787 15.408 13.12V25.088ZM5.36 22.496C5.43467 21.9947 5.49333 21.456 5.536 20.88C5.57867 20.2933 5.6 19.7013 5.6 19.104C5.6 18.5067 5.57867 17.92 5.536 17.344C5.49333 16.7573 5.43467 16.2133 5.36 15.712H5.008C5.08267 16.2133 5.136 16.7573 5.168 17.344C5.21067 17.92 5.232 18.5067 5.232 19.104C5.232 19.7013 5.21067 20.2933 5.168 20.88C5.136 21.456 5.08267 21.9947 5.008 22.496H5.36Z"/>
<path d="M44.464 25.088C44.464 25.4293 44.3733 25.7013 44.192 25.904C44.0107 26.1067 43.7653 26.208 43.456 26.208H32.064C31.7547 26.208 31.5093 26.1067 31.328 25.904C31.1467 25.7013 31.056 25.4293 31.056 25.088V22.624C31.056 22.2827 31.1467 22 31.328 21.776C31.5093 21.552 31.7493 21.4293 32.048 21.408C32.72 21.3547 33.376 21.3173 34.016 21.296C34.6667 21.264 35.312 21.2533 35.952 21.264C36.592 21.2747 37.2373 21.3013 37.888 21.344C38.5387 21.376 39.216 21.4293 39.92 21.504V21.184C39.216 21.1093 38.5387 21.056 37.888 21.024C37.2373 20.9813 36.592 20.9547 35.952 20.944C35.312 20.9333 34.6667 20.944 34.016 20.976C33.376 20.9973 32.72 21.0347 32.048 21.088C31.7493 21.1093 31.5093 21.0293 31.328 20.848C31.1467 20.6667 31.056 20.4053 31.056 20.064C31.056 19.6693 31.1467 19.3653 31.328 19.152C31.5093 18.9387 31.7547 18.832 32.064 18.832H43.456C43.7653 18.832 44.0107 18.9333 44.192 19.136C44.3733 19.3387 44.464 19.6107 44.464 19.952V22.416C44.464 22.7573 44.3733 23.04 44.192 23.264C44.0107 23.488 43.7707 23.6107 43.472 23.632C42.8 23.6853 42.1387 23.728 41.488 23.76C40.848 23.7813 40.208 23.7867 39.568 23.776C38.928 23.7653 38.2827 23.744 37.632 23.712C36.9813 23.6693 36.304 23.6107 35.6 23.536V23.856C36.304 23.9307 36.9813 23.9893 37.632 24.032C38.2827 24.064 38.928 24.0853 39.568 24.096C40.208 24.1067 40.848 24.1013 41.488 24.08C42.1387 24.048 42.8 24.0053 43.472 23.952C43.7707 23.9307 44.0107 24.0107 44.192 24.192C44.3733 24.3733 44.464 24.6347 44.464 24.976V25.088ZM44.464 17.392C44.464 17.7333 44.3733 18.0053 44.192 18.208C44.0107 18.4107 43.7653 18.512 43.456 18.512H39.984C39.792 18.512 39.696 18.4053 39.696 18.192V18.032H38.704C38.4907 18.032 38.3147 17.9627 38.176 17.824C38.048 17.6747 37.984 17.4773 37.984 17.232V17.088C37.664 17.376 37.2907 17.6107 36.864 17.792C36.448 17.9627 35.984 18.1013 35.472 18.208C34.9707 18.304 34.432 18.3733 33.856 18.416C33.28 18.448 32.6827 18.4693 32.064 18.48C31.7547 18.48 31.5093 18.3787 31.328 18.176C31.1467 17.9733 31.056 17.7013 31.056 17.36V16.688C31.056 16.3467 31.1467 16.0747 31.328 15.872C31.5093 15.6693 31.7547 15.5627 32.064 15.552C32.8533 15.5307 33.4773 15.472 33.936 15.376C34.3947 15.28 34.6827 15.1253 34.8 14.912H32.064C31.7547 14.912 31.5093 14.8107 31.328 14.608C31.1467 14.4053 31.056 14.1333 31.056 13.792V13.12C31.056 12.7787 31.1467 12.5067 31.328 12.304C31.5093 12.1013 31.7547 12 32.064 12H38.784C38.912 12 39.0133 12.0427 39.088 12.128C39.1733 12.2133 39.216 12.3307 39.216 12.48V12.512H39.696V12.48C39.696 12.3307 39.7333 12.2133 39.808 12.128C39.8827 12.0427 39.9893 12 40.128 12H43.456C43.7653 12 44.0107 12.1013 44.192 12.304C44.3733 12.5067 44.464 12.7787 44.464 13.12V17.392ZM39.696 15.6V14.944H39.104C39.0827 15.0613 39.056 15.1787 39.024 15.296C38.992 15.4027 38.96 15.504 38.928 15.6H39.696Z"/>
<path d="M58.52 25.088C58.52 25.4293 58.4293 25.7013 58.248 25.904C58.0667 26.1067 57.8213 26.208 57.512 26.208H46.472C46.1627 26.208 45.9173 26.1067 45.736 25.904C45.5547 25.7013 45.464 25.4293 45.464 25.088V21.872C45.464 21.5307 45.5547 21.2587 45.736 21.056C45.9173 20.8533 46.1627 20.752 46.472 20.752H48.6C48.8453 20.752 49.0427 20.8427 49.192 21.024C49.352 21.2053 49.496 21.408 49.624 21.632C49.7627 21.856 49.9067 22.0587 50.056 22.24C50.216 22.4213 50.4187 22.512 50.664 22.512H57.512C57.8213 22.512 58.0667 22.6133 58.248 22.816C58.4293 23.0187 58.52 23.2907 58.52 23.632V25.088ZM53.56 19.376C53.56 19.7173 53.464 19.9893 53.272 20.192C53.0907 20.3947 52.8507 20.4747 52.552 20.432C51.9547 20.3573 51.3893 20.208 50.856 19.984C50.3333 19.7493 49.88 19.4293 49.496 19.024C49.1227 19.4293 48.6747 19.7493 48.152 19.984C47.6293 20.208 47.0693 20.3573 46.472 20.432C46.1733 20.4747 45.928 20.3947 45.736 20.192C45.5547 19.9893 45.464 19.7173 45.464 19.376V17.28C45.464 16.8213 45.736 16.4053 46.28 16.032C46.5147 15.872 46.6907 15.6427 46.808 15.344C46.9253 15.0453 46.984 14.6453 46.984 14.144V13.12C46.984 12.7787 47.0747 12.5067 47.256 12.304C47.4373 12.1013 47.6827 12 47.992 12H51.032C51.3413 12 51.5867 12.1013 51.768 12.304C51.9493 12.5067 52.04 12.7787 52.04 13.12V14.144C52.04 14.6453 52.0933 15.0453 52.2 15.344C52.3173 15.6427 52.4987 15.872 52.744 16.032C53.288 16.4053 53.56 16.8213 53.56 17.28V19.376ZM58.52 20.992C58.52 21.3333 58.4293 21.6053 58.248 21.808C58.0667 22.0107 57.8213 22.112 57.512 22.112H54.968C54.6587 22.112 54.4133 22.0107 54.232 21.808C54.0507 21.6053 53.96 21.3333 53.96 20.992V13.12C53.96 12.7787 54.0507 12.5067 54.232 12.304C54.4133 12.1013 54.6587 12 54.968 12H57.512C57.8213 12 58.0667 12.1013 58.248 12.304C58.4293 12.5067 58.52 12.7787 58.52 13.12V13.824C58.52 13.9947 58.568 14.128 58.664 14.224C58.7707 14.32 58.888 14.4107 59.016 14.496C59.144 14.5707 59.256 14.656 59.352 14.752C59.4587 14.8373 59.512 14.9653 59.512 15.136V17.568C59.512 17.7387 59.4587 17.872 59.352 17.968C59.256 18.064 59.144 18.1547 59.016 18.24C58.888 18.3147 58.7707 18.4 58.664 18.496C58.568 18.5813 58.52 18.7093 58.52 18.88V20.992Z"/>
<path d="M30.024 23.968C29.992 24.3733 29.8747 24.7147 29.672 24.992C29.48 25.2693 29.2293 25.4933 28.92 25.664C28.6107 25.8453 28.2533 25.9787 27.848 26.064C27.4533 26.1493 27.032 26.1973 26.584 26.208C24.3547 26.272 22.1253 26.272 19.896 26.208C19.448 26.1973 19.0213 26.1493 18.616 26.064C18.2213 25.9787 17.8693 25.8453 17.56 25.664C17.2507 25.4933 16.9947 25.2693 16.792 24.992C16.6 24.7147 16.488 24.3733 16.456 23.968C16.4347 23.7867 16.4187 23.6213 16.408 23.472C16.408 23.3227 16.408 23.1787 16.408 23.04C16.408 22.8907 16.408 22.7413 16.408 22.592C16.4187 22.432 16.4347 22.2613 16.456 22.08C16.488 21.6747 16.6 21.3333 16.792 21.056C16.9947 20.7787 17.2507 20.5547 17.56 20.384C17.8693 20.2027 18.2213 20.0693 18.616 19.984C19.0213 19.8987 19.448 19.8507 19.896 19.84C22.1253 19.776 24.3547 19.776 26.584 19.84C27.032 19.8507 27.4533 19.8987 27.848 19.984C28.2533 20.0693 28.6107 20.2027 28.92 20.384C29.2293 20.5547 29.48 20.7787 29.672 21.056C29.8747 21.3333 29.992 21.6747 30.024 22.08C30.0347 22.2613 30.04 22.432 30.04 22.592C30.0507 22.7413 30.056 22.8907 30.056 23.04C30.056 23.1787 30.0507 23.3227 30.04 23.472C30.04 23.6213 30.0347 23.7867 30.024 23.968ZM29.944 18.336C29.944 18.6773 29.8533 18.9493 29.672 19.152C29.4907 19.3547 29.2453 19.456 28.936 19.456H27.496C27.1973 19.456 26.952 19.3547 26.76 19.152C26.5787 18.9493 26.488 18.6773 26.488 18.336V17.568H26.136V18.336C26.136 18.6773 26.0453 18.9493 25.864 19.152C25.6827 19.3547 25.4373 19.456 25.128 19.456H23.688C23.3787 19.456 23.1333 19.3547 22.952 19.152C22.7707 18.9493 22.68 18.6773 22.68 18.336V13.12C22.68 12.7787 22.7707 12.5067 22.952 12.304C23.1333 12.1013 23.3787 12 23.688 12H25.128C25.4373 12 25.6827 12.1013 25.864 12.304C26.0453 12.5067 26.136 12.7787 26.136 13.12V13.696H26.488V13.12C26.488 12.7787 26.5787 12.5067 26.76 12.304C26.952 12.1013 27.1973 12 27.496 12H28.936C29.2453 12 29.4907 12.1013 29.672 12.304C29.8533 12.5067 29.944 12.7787 29.944 13.12V18.336ZM22.36 18.336C22.36 18.688 22.264 18.96 22.072 19.152C21.88 19.344 21.64 19.4027 21.352 19.328C20.9467 19.232 20.5733 19.0827 20.232 18.88C19.8907 18.6667 19.624 18.4213 19.432 18.144C19.2507 18.4213 18.9893 18.6667 18.648 18.88C18.3067 19.0827 17.9333 19.232 17.528 19.328C17.2507 19.4027 17.016 19.344 16.824 19.152C16.632 18.96 16.536 18.688 16.536 18.336V16.16C16.536 16.032 16.568 15.904 16.632 15.776C16.696 15.648 16.808 15.4933 16.968 15.312C17.064 15.1947 17.1387 15.0453 17.192 14.864C17.2453 14.6827 17.272 14.4373 17.272 14.128V13.12C17.272 12.7787 17.3627 12.5067 17.544 12.304C17.736 12.1013 17.9813 12 18.28 12H20.6C20.9093 12 21.1547 12.1013 21.336 12.304C21.5173 12.5067 21.608 12.7787 21.608 13.12V14.128C21.608 14.4373 21.6347 14.6827 21.688 14.864C21.752 15.0453 21.832 15.1947 21.928 15.312C22.216 15.6427 22.36 15.9253 22.36 16.16V18.336ZM25.608 22.832C24.84 22.672 24.0507 22.592 23.24 22.592C22.4293 22.592 21.64 22.672 20.872 22.832V23.216C21.64 23.056 22.4293 22.976 23.24 22.976C24.0507 22.976 24.84 23.056 25.608 23.216V22.832Z"/>
</mask>
<path d="M11.888 25.088C11.888 25.4293 11.7973 25.7013 11.616 25.904C11.4347 26.1067 11.1893 26.208 10.88 26.208H9.728C9.41867 26.208 9.17333 26.1067 8.992 25.904C8.81067 25.7013 8.72 25.4293 8.72 25.088V21.2H8.352V25.088C8.352 25.4293 8.26133 25.7013 8.08 25.904C7.89867 26.1067 7.65333 26.208 7.344 26.208H3.008C2.69867 26.208 2.45333 26.1067 2.272 25.904C2.09067 25.7013 2 25.4293 2 25.088V13.12C2 12.7787 2.09067 12.5067 2.272 12.304C2.45333 12.1013 2.69867 12 3.008 12H7.344C7.65333 12 7.89867 12.1013 8.08 12.304C8.26133 12.5067 8.352 12.7787 8.352 13.12V16.528H8.72V13.12C8.72 12.7787 8.81067 12.5067 8.992 12.304C9.17333 12.1013 9.41867 12 9.728 12H10.88C11.1893 12 11.4347 12.1013 11.616 12.304C11.7973 12.5067 11.888 12.7787 11.888 13.12V25.088ZM15.408 25.088C15.408 25.4293 15.3173 25.7013 15.136 25.904C14.9547 26.1067 14.7093 26.208 14.4 26.208H13.248C12.9493 26.208 12.704 26.1067 12.512 25.904C12.3307 25.7013 12.24 25.4293 12.24 25.088V13.12C12.24 12.7787 12.3307 12.5067 12.512 12.304C12.704 12.1013 12.9493 12 13.248 12H14.4C14.7093 12 14.9547 12.1013 15.136 12.304C15.3173 12.5067 15.408 12.7787 15.408 13.12V25.088ZM5.36 22.496C5.43467 21.9947 5.49333 21.456 5.536 20.88C5.57867 20.2933 5.6 19.7013 5.6 19.104C5.6 18.5067 5.57867 17.92 5.536 17.344C5.49333 16.7573 5.43467 16.2133 5.36 15.712H5.008C5.08267 16.2133 5.136 16.7573 5.168 17.344C5.21067 17.92 5.232 18.5067 5.232 19.104C5.232 19.7013 5.21067 20.2933 5.168 20.88C5.136 21.456 5.08267 21.9947 5.008 22.496H5.36Z" fill="#FDD26E" style="fill:#FDD26E;fill:color(display-p3 0.9922 0.8235 0.4314);fill-opacity:1;"/>
<path d="M44.464 25.088C44.464 25.4293 44.3733 25.7013 44.192 25.904C44.0107 26.1067 43.7653 26.208 43.456 26.208H32.064C31.7547 26.208 31.5093 26.1067 31.328 25.904C31.1467 25.7013 31.056 25.4293 31.056 25.088V22.624C31.056 22.2827 31.1467 22 31.328 21.776C31.5093 21.552 31.7493 21.4293 32.048 21.408C32.72 21.3547 33.376 21.3173 34.016 21.296C34.6667 21.264 35.312 21.2533 35.952 21.264C36.592 21.2747 37.2373 21.3013 37.888 21.344C38.5387 21.376 39.216 21.4293 39.92 21.504V21.184C39.216 21.1093 38.5387 21.056 37.888 21.024C37.2373 20.9813 36.592 20.9547 35.952 20.944C35.312 20.9333 34.6667 20.944 34.016 20.976C33.376 20.9973 32.72 21.0347 32.048 21.088C31.7493 21.1093 31.5093 21.0293 31.328 20.848C31.1467 20.6667 31.056 20.4053 31.056 20.064C31.056 19.6693 31.1467 19.3653 31.328 19.152C31.5093 18.9387 31.7547 18.832 32.064 18.832H43.456C43.7653 18.832 44.0107 18.9333 44.192 19.136C44.3733 19.3387 44.464 19.6107 44.464 19.952V22.416C44.464 22.7573 44.3733 23.04 44.192 23.264C44.0107 23.488 43.7707 23.6107 43.472 23.632C42.8 23.6853 42.1387 23.728 41.488 23.76C40.848 23.7813 40.208 23.7867 39.568 23.776C38.928 23.7653 38.2827 23.744 37.632 23.712C36.9813 23.6693 36.304 23.6107 35.6 23.536V23.856C36.304 23.9307 36.9813 23.9893 37.632 24.032C38.2827 24.064 38.928 24.0853 39.568 24.096C40.208 24.1067 40.848 24.1013 41.488 24.08C42.1387 24.048 42.8 24.0053 43.472 23.952C43.7707 23.9307 44.0107 24.0107 44.192 24.192C44.3733 24.3733 44.464 24.6347 44.464 24.976V25.088ZM44.464 17.392C44.464 17.7333 44.3733 18.0053 44.192 18.208C44.0107 18.4107 43.7653 18.512 43.456 18.512H39.984C39.792 18.512 39.696 18.4053 39.696 18.192V18.032H38.704C38.4907 18.032 38.3147 17.9627 38.176 17.824C38.048 17.6747 37.984 17.4773 37.984 17.232V17.088C37.664 17.376 37.2907 17.6107 36.864 17.792C36.448 17.9627 35.984 18.1013 35.472 18.208C34.9707 18.304 34.432 18.3733 33.856 18.416C33.28 18.448 32.6827 18.4693 32.064 18.48C31.7547 18.48 31.5093 18.3787 31.328 18.176C31.1467 17.9733 31.056 17.7013 31.056 17.36V16.688C31.056 16.3467 31.1467 16.0747 31.328 15.872C31.5093 15.6693 31.7547 15.5627 32.064 15.552C32.8533 15.5307 33.4773 15.472 33.936 15.376C34.3947 15.28 34.6827 15.1253 34.8 14.912H32.064C31.7547 14.912 31.5093 14.8107 31.328 14.608C31.1467 14.4053 31.056 14.1333 31.056 13.792V13.12C31.056 12.7787 31.1467 12.5067 31.328 12.304C31.5093 12.1013 31.7547 12 32.064 12H38.784C38.912 12 39.0133 12.0427 39.088 12.128C39.1733 12.2133 39.216 12.3307 39.216 12.48V12.512H39.696V12.48C39.696 12.3307 39.7333 12.2133 39.808 12.128C39.8827 12.0427 39.9893 12 40.128 12H43.456C43.7653 12 44.0107 12.1013 44.192 12.304C44.3733 12.5067 44.464 12.7787 44.464 13.12V17.392ZM39.696 15.6V14.944H39.104C39.0827 15.0613 39.056 15.1787 39.024 15.296C38.992 15.4027 38.96 15.504 38.928 15.6H39.696Z" fill="#F87C56" style="fill:#F87C56;fill:color(display-p3 0.9725 0.4863 0.3373);fill-opacity:1;"/>
<path d="M58.52 25.088C58.52 25.4293 58.4293 25.7013 58.248 25.904C58.0667 26.1067 57.8213 26.208 57.512 26.208H46.472C46.1627 26.208 45.9173 26.1067 45.736 25.904C45.5547 25.7013 45.464 25.4293 45.464 25.088V21.872C45.464 21.5307 45.5547 21.2587 45.736 21.056C45.9173 20.8533 46.1627 20.752 46.472 20.752H48.6C48.8453 20.752 49.0427 20.8427 49.192 21.024C49.352 21.2053 49.496 21.408 49.624 21.632C49.7627 21.856 49.9067 22.0587 50.056 22.24C50.216 22.4213 50.4187 22.512 50.664 22.512H57.512C57.8213 22.512 58.0667 22.6133 58.248 22.816C58.4293 23.0187 58.52 23.2907 58.52 23.632V25.088ZM53.56 19.376C53.56 19.7173 53.464 19.9893 53.272 20.192C53.0907 20.3947 52.8507 20.4747 52.552 20.432C51.9547 20.3573 51.3893 20.208 50.856 19.984C50.3333 19.7493 49.88 19.4293 49.496 19.024C49.1227 19.4293 48.6747 19.7493 48.152 19.984C47.6293 20.208 47.0693 20.3573 46.472 20.432C46.1733 20.4747 45.928 20.3947 45.736 20.192C45.5547 19.9893 45.464 19.7173 45.464 19.376V17.28C45.464 16.8213 45.736 16.4053 46.28 16.032C46.5147 15.872 46.6907 15.6427 46.808 15.344C46.9253 15.0453 46.984 14.6453 46.984 14.144V13.12C46.984 12.7787 47.0747 12.5067 47.256 12.304C47.4373 12.1013 47.6827 12 47.992 12H51.032C51.3413 12 51.5867 12.1013 51.768 12.304C51.9493 12.5067 52.04 12.7787 52.04 13.12V14.144C52.04 14.6453 52.0933 15.0453 52.2 15.344C52.3173 15.6427 52.4987 15.872 52.744 16.032C53.288 16.4053 53.56 16.8213 53.56 17.28V19.376ZM58.52 20.992C58.52 21.3333 58.4293 21.6053 58.248 21.808C58.0667 22.0107 57.8213 22.112 57.512 22.112H54.968C54.6587 22.112 54.4133 22.0107 54.232 21.808C54.0507 21.6053 53.96 21.3333 53.96 20.992V13.12C53.96 12.7787 54.0507 12.5067 54.232 12.304C54.4133 12.1013 54.6587 12 54.968 12H57.512C57.8213 12 58.0667 12.1013 58.248 12.304C58.4293 12.5067 58.52 12.7787 58.52 13.12V13.824C58.52 13.9947 58.568 14.128 58.664 14.224C58.7707 14.32 58.888 14.4107 59.016 14.496C59.144 14.5707 59.256 14.656 59.352 14.752C59.4587 14.8373 59.512 14.9653 59.512 15.136V17.568C59.512 17.7387 59.4587 17.872 59.352 17.968C59.256 18.064 59.144 18.1547 59.016 18.24C58.888 18.3147 58.7707 18.4 58.664 18.496C58.568 18.5813 58.52 18.7093 58.52 18.88V20.992Z" fill="#F87C56" style="fill:#F87C56;fill:color(display-p3 0.9725 0.4863 0.3373);fill-opacity:1;"/>
<path d="M30.024 23.968C29.992 24.3733 29.8747 24.7147 29.672 24.992C29.48 25.2693 29.2293 25.4933 28.92 25.664C28.6107 25.8453 28.2533 25.9787 27.848 26.064C27.4533 26.1493 27.032 26.1973 26.584 26.208C24.3547 26.272 22.1253 26.272 19.896 26.208C19.448 26.1973 19.0213 26.1493 18.616 26.064C18.2213 25.9787 17.8693 25.8453 17.56 25.664C17.2507 25.4933 16.9947 25.2693 16.792 24.992C16.6 24.7147 16.488 24.3733 16.456 23.968C16.4347 23.7867 16.4187 23.6213 16.408 23.472C16.408 23.3227 16.408 23.1787 16.408 23.04C16.408 22.8907 16.408 22.7413 16.408 22.592C16.4187 22.432 16.4347 22.2613 16.456 22.08C16.488 21.6747 16.6 21.3333 16.792 21.056C16.9947 20.7787 17.2507 20.5547 17.56 20.384C17.8693 20.2027 18.2213 20.0693 18.616 19.984C19.0213 19.8987 19.448 19.8507 19.896 19.84C22.1253 19.776 24.3547 19.776 26.584 19.84C27.032 19.8507 27.4533 19.8987 27.848 19.984C28.2533 20.0693 28.6107 20.2027 28.92 20.384C29.2293 20.5547 29.48 20.7787 29.672 21.056C29.8747 21.3333 29.992 21.6747 30.024 22.08C30.0347 22.2613 30.04 22.432 30.04 22.592C30.0507 22.7413 30.056 22.8907 30.056 23.04C30.056 23.1787 30.0507 23.3227 30.04 23.472C30.04 23.6213 30.0347 23.7867 30.024 23.968ZM29.944 18.336C29.944 18.6773 29.8533 18.9493 29.672 19.152C29.4907 19.3547 29.2453 19.456 28.936 19.456H27.496C27.1973 19.456 26.952 19.3547 26.76 19.152C26.5787 18.9493 26.488 18.6773 26.488 18.336V17.568H26.136V18.336C26.136 18.6773 26.0453 18.9493 25.864 19.152C25.6827 19.3547 25.4373 19.456 25.128 19.456H23.688C23.3787 19.456 23.1333 19.3547 22.952 19.152C22.7707 18.9493 22.68 18.6773 22.68 18.336V13.12C22.68 12.7787 22.7707 12.5067 22.952 12.304C23.1333 12.1013 23.3787 12 23.688 12H25.128C25.4373 12 25.6827 12.1013 25.864 12.304C26.0453 12.5067 26.136 12.7787 26.136 13.12V13.696H26.488V13.12C26.488 12.7787 26.5787 12.5067 26.76 12.304C26.952 12.1013 27.1973 12 27.496 12H28.936C29.2453 12 29.4907 12.1013 29.672 12.304C29.8533 12.5067 29.944 12.7787 29.944 13.12V18.336ZM22.36 18.336C22.36 18.688 22.264 18.96 22.072 19.152C21.88 19.344 21.64 19.4027 21.352 19.328C20.9467 19.232 20.5733 19.0827 20.232 18.88C19.8907 18.6667 19.624 18.4213 19.432 18.144C19.2507 18.4213 18.9893 18.6667 18.648 18.88C18.3067 19.0827 17.9333 19.232 17.528 19.328C17.2507 19.4027 17.016 19.344 16.824 19.152C16.632 18.96 16.536 18.688 16.536 18.336V16.16C16.536 16.032 16.568 15.904 16.632 15.776C16.696 15.648 16.808 15.4933 16.968 15.312C17.064 15.1947 17.1387 15.0453 17.192 14.864C17.2453 14.6827 17.272 14.4373 17.272 14.128V13.12C17.272 12.7787 17.3627 12.5067 17.544 12.304C17.736 12.1013 17.9813 12 18.28 12H20.6C20.9093 12 21.1547 12.1013 21.336 12.304C21.5173 12.5067 21.608 12.7787 21.608 13.12V14.128C21.608 14.4373 21.6347 14.6827 21.688 14.864C21.752 15.0453 21.832 15.1947 21.928 15.312C22.216 15.6427 22.36 15.9253 22.36 16.16V18.336ZM25.608 22.832C24.84 22.672 24.0507 22.592 23.24 22.592C22.4293 22.592 21.64 22.672 20.872 22.832V23.216C21.64 23.056 22.4293 22.976 23.24 22.976C24.0507 22.976 24.84 23.056 25.608 23.216V22.832Z" fill="#FDD26E" style="fill:#FDD26E;fill:color(display-p3 0.9922 0.8235 0.4314);fill-opacity:1;"/>
<path d="M11.888 25.088C11.888 25.4293 11.7973 25.7013 11.616 25.904C11.4347 26.1067 11.1893 26.208 10.88 26.208H9.728C9.41867 26.208 9.17333 26.1067 8.992 25.904C8.81067 25.7013 8.72 25.4293 8.72 25.088V21.2H8.352V25.088C8.352 25.4293 8.26133 25.7013 8.08 25.904C7.89867 26.1067 7.65333 26.208 7.344 26.208H3.008C2.69867 26.208 2.45333 26.1067 2.272 25.904C2.09067 25.7013 2 25.4293 2 25.088V13.12C2 12.7787 2.09067 12.5067 2.272 12.304C2.45333 12.1013 2.69867 12 3.008 12H7.344C7.65333 12 7.89867 12.1013 8.08 12.304C8.26133 12.5067 8.352 12.7787 8.352 13.12V16.528H8.72V13.12C8.72 12.7787 8.81067 12.5067 8.992 12.304C9.17333 12.1013 9.41867 12 9.728 12H10.88C11.1893 12 11.4347 12.1013 11.616 12.304C11.7973 12.5067 11.888 12.7787 11.888 13.12V25.088ZM15.408 25.088C15.408 25.4293 15.3173 25.7013 15.136 25.904C14.9547 26.1067 14.7093 26.208 14.4 26.208H13.248C12.9493 26.208 12.704 26.1067 12.512 25.904C12.3307 25.7013 12.24 25.4293 12.24 25.088V13.12C12.24 12.7787 12.3307 12.5067 12.512 12.304C12.704 12.1013 12.9493 12 13.248 12H14.4C14.7093 12 14.9547 12.1013 15.136 12.304C15.3173 12.5067 15.408 12.7787 15.408 13.12V25.088ZM5.36 22.496C5.43467 21.9947 5.49333 21.456 5.536 20.88C5.57867 20.2933 5.6 19.7013 5.6 19.104C5.6 18.5067 5.57867 17.92 5.536 17.344C5.49333 16.7573 5.43467 16.2133 5.36 15.712H5.008C5.08267 16.2133 5.136 16.7573 5.168 17.344C5.21067 17.92 5.232 18.5067 5.232 19.104C5.232 19.7013 5.21067 20.2933 5.168 20.88C5.136 21.456 5.08267 21.9947 5.008 22.496H5.36Z" stroke="#171833" style="stroke:#171833;stroke:color(display-p3 0.0902 0.0941 0.2000);stroke-opacity:1;" stroke-width="4" mask="url(#path-2-outside-1_105_338)"/>
<path d="M44.464 25.088C44.464 25.4293 44.3733 25.7013 44.192 25.904C44.0107 26.1067 43.7653 26.208 43.456 26.208H32.064C31.7547 26.208 31.5093 26.1067 31.328 25.904C31.1467 25.7013 31.056 25.4293 31.056 25.088V22.624C31.056 22.2827 31.1467 22 31.328 21.776C31.5093 21.552 31.7493 21.4293 32.048 21.408C32.72 21.3547 33.376 21.3173 34.016 21.296C34.6667 21.264 35.312 21.2533 35.952 21.264C36.592 21.2747 37.2373 21.3013 37.888 21.344C38.5387 21.376 39.216 21.4293 39.92 21.504V21.184C39.216 21.1093 38.5387 21.056 37.888 21.024C37.2373 20.9813 36.592 20.9547 35.952 20.944C35.312 20.9333 34.6667 20.944 34.016 20.976C33.376 20.9973 32.72 21.0347 32.048 21.088C31.7493 21.1093 31.5093 21.0293 31.328 20.848C31.1467 20.6667 31.056 20.4053 31.056 20.064C31.056 19.6693 31.1467 19.3653 31.328 19.152C31.5093 18.9387 31.7547 18.832 32.064 18.832H43.456C43.7653 18.832 44.0107 18.9333 44.192 19.136C44.3733 19.3387 44.464 19.6107 44.464 19.952V22.416C44.464 22.7573 44.3733 23.04 44.192 23.264C44.0107 23.488 43.7707 23.6107 43.472 23.632C42.8 23.6853 42.1387 23.728 41.488 23.76C40.848 23.7813 40.208 23.7867 39.568 23.776C38.928 23.7653 38.2827 23.744 37.632 23.712C36.9813 23.6693 36.304 23.6107 35.6 23.536V23.856C36.304 23.9307 36.9813 23.9893 37.632 24.032C38.2827 24.064 38.928 24.0853 39.568 24.096C40.208 24.1067 40.848 24.1013 41.488 24.08C42.1387 24.048 42.8 24.0053 43.472 23.952C43.7707 23.9307 44.0107 24.0107 44.192 24.192C44.3733 24.3733 44.464 24.6347 44.464 24.976V25.088ZM44.464 17.392C44.464 17.7333 44.3733 18.0053 44.192 18.208C44.0107 18.4107 43.7653 18.512 43.456 18.512H39.984C39.792 18.512 39.696 18.4053 39.696 18.192V18.032H38.704C38.4907 18.032 38.3147 17.9627 38.176 17.824C38.048 17.6747 37.984 17.4773 37.984 17.232V17.088C37.664 17.376 37.2907 17.6107 36.864 17.792C36.448 17.9627 35.984 18.1013 35.472 18.208C34.9707 18.304 34.432 18.3733 33.856 18.416C33.28 18.448 32.6827 18.4693 32.064 18.48C31.7547 18.48 31.5093 18.3787 31.328 18.176C31.1467 17.9733 31.056 17.7013 31.056 17.36V16.688C31.056 16.3467 31.1467 16.0747 31.328 15.872C31.5093 15.6693 31.7547 15.5627 32.064 15.552C32.8533 15.5307 33.4773 15.472 33.936 15.376C34.3947 15.28 34.6827 15.1253 34.8 14.912H32.064C31.7547 14.912 31.5093 14.8107 31.328 14.608C31.1467 14.4053 31.056 14.1333 31.056 13.792V13.12C31.056 12.7787 31.1467 12.5067 31.328 12.304C31.5093 12.1013 31.7547 12 32.064 12H38.784C38.912 12 39.0133 12.0427 39.088 12.128C39.1733 12.2133 39.216 12.3307 39.216 12.48V12.512H39.696V12.48C39.696 12.3307 39.7333 12.2133 39.808 12.128C39.8827 12.0427 39.9893 12 40.128 12H43.456C43.7653 12 44.0107 12.1013 44.192 12.304C44.3733 12.5067 44.464 12.7787 44.464 13.12V17.392ZM39.696 15.6V14.944H39.104C39.0827 15.0613 39.056 15.1787 39.024 15.296C38.992 15.4027 38.96 15.504 38.928 15.6H39.696Z" stroke="#171833" style="stroke:#171833;stroke:color(display-p3 0.0902 0.0941 0.2000);stroke-opacity:1;" stroke-width="4" mask="url(#path-2-outside-1_105_338)"/>
<path d="M58.52 25.088C58.52 25.4293 58.4293 25.7013 58.248 25.904C58.0667 26.1067 57.8213 26.208 57.512 26.208H46.472C46.1627 26.208 45.9173 26.1067 45.736 25.904C45.5547 25.7013 45.464 25.4293 45.464 25.088V21.872C45.464 21.5307 45.5547 21.2587 45.736 21.056C45.9173 20.8533 46.1627 20.752 46.472 20.752H48.6C48.8453 20.752 49.0427 20.8427 49.192 21.024C49.352 21.2053 49.496 21.408 49.624 21.632C49.7627 21.856 49.9067 22.0587 50.056 22.24C50.216 22.4213 50.4187 22.512 50.664 22.512H57.512C57.8213 22.512 58.0667 22.6133 58.248 22.816C58.4293 23.0187 58.52 23.2907 58.52 23.632V25.088ZM53.56 19.376C53.56 19.7173 53.464 19.9893 53.272 20.192C53.0907 20.3947 52.8507 20.4747 52.552 20.432C51.9547 20.3573 51.3893 20.208 50.856 19.984C50.3333 19.7493 49.88 19.4293 49.496 19.024C49.1227 19.4293 48.6747 19.7493 48.152 19.984C47.6293 20.208 47.0693 20.3573 46.472 20.432C46.1733 20.4747 45.928 20.3947 45.736 20.192C45.5547 19.9893 45.464 19.7173 45.464 19.376V17.28C45.464 16.8213 45.736 16.4053 46.28 16.032C46.5147 15.872 46.6907 15.6427 46.808 15.344C46.9253 15.0453 46.984 14.6453 46.984 14.144V13.12C46.984 12.7787 47.0747 12.5067 47.256 12.304C47.4373 12.1013 47.6827 12 47.992 12H51.032C51.3413 12 51.5867 12.1013 51.768 12.304C51.9493 12.5067 52.04 12.7787 52.04 13.12V14.144C52.04 14.6453 52.0933 15.0453 52.2 15.344C52.3173 15.6427 52.4987 15.872 52.744 16.032C53.288 16.4053 53.56 16.8213 53.56 17.28V19.376ZM58.52 20.992C58.52 21.3333 58.4293 21.6053 58.248 21.808C58.0667 22.0107 57.8213 22.112 57.512 22.112H54.968C54.6587 22.112 54.4133 22.0107 54.232 21.808C54.0507 21.6053 53.96 21.3333 53.96 20.992V13.12C53.96 12.7787 54.0507 12.5067 54.232 12.304C54.4133 12.1013 54.6587 12 54.968 12H57.512C57.8213 12 58.0667 12.1013 58.248 12.304C58.4293 12.5067 58.52 12.7787 58.52 13.12V13.824C58.52 13.9947 58.568 14.128 58.664 14.224C58.7707 14.32 58.888 14.4107 59.016 14.496C59.144 14.5707 59.256 14.656 59.352 14.752C59.4587 14.8373 59.512 14.9653 59.512 15.136V17.568C59.512 17.7387 59.4587 17.872 59.352 17.968C59.256 18.064 59.144 18.1547 59.016 18.24C58.888 18.3147 58.7707 18.4 58.664 18.496C58.568 18.5813 58.52 18.7093 58.52 18.88V20.992Z" stroke="#171833" style="stroke:#171833;stroke:color(display-p3 0.0902 0.0941 0.2000);stroke-opacity:1;" stroke-width="4" mask="url(#path-2-outside-1_105_338)"/>
<path d="M30.024 23.968C29.992 24.3733 29.8747 24.7147 29.672 24.992C29.48 25.2693 29.2293 25.4933 28.92 25.664C28.6107 25.8453 28.2533 25.9787 27.848 26.064C27.4533 26.1493 27.032 26.1973 26.584 26.208C24.3547 26.272 22.1253 26.272 19.896 26.208C19.448 26.1973 19.0213 26.1493 18.616 26.064C18.2213 25.9787 17.8693 25.8453 17.56 25.664C17.2507 25.4933 16.9947 25.2693 16.792 24.992C16.6 24.7147 16.488 24.3733 16.456 23.968C16.4347 23.7867 16.4187 23.6213 16.408 23.472C16.408 23.3227 16.408 23.1787 16.408 23.04C16.408 22.8907 16.408 22.7413 16.408 22.592C16.4187 22.432 16.4347 22.2613 16.456 22.08C16.488 21.6747 16.6 21.3333 16.792 21.056C16.9947 20.7787 17.2507 20.5547 17.56 20.384C17.8693 20.2027 18.2213 20.0693 18.616 19.984C19.0213 19.8987 19.448 19.8507 19.896 19.84C22.1253 19.776 24.3547 19.776 26.584 19.84C27.032 19.8507 27.4533 19.8987 27.848 19.984C28.2533 20.0693 28.6107 20.2027 28.92 20.384C29.2293 20.5547 29.48 20.7787 29.672 21.056C29.8747 21.3333 29.992 21.6747 30.024 22.08C30.0347 22.2613 30.04 22.432 30.04 22.592C30.0507 22.7413 30.056 22.8907 30.056 23.04C30.056 23.1787 30.0507 23.3227 30.04 23.472C30.04 23.6213 30.0347 23.7867 30.024 23.968ZM29.944 18.336C29.944 18.6773 29.8533 18.9493 29.672 19.152C29.4907 19.3547 29.2453 19.456 28.936 19.456H27.496C27.1973 19.456 26.952 19.3547 26.76 19.152C26.5787 18.9493 26.488 18.6773 26.488 18.336V17.568H26.136V18.336C26.136 18.6773 26.0453 18.9493 25.864 19.152C25.6827 19.3547 25.4373 19.456 25.128 19.456H23.688C23.3787 19.456 23.1333 19.3547 22.952 19.152C22.7707 18.9493 22.68 18.6773 22.68 18.336V13.12C22.68 12.7787 22.7707 12.5067 22.952 12.304C23.1333 12.1013 23.3787 12 23.688 12H25.128C25.4373 12 25.6827 12.1013 25.864 12.304C26.0453 12.5067 26.136 12.7787 26.136 13.12V13.696H26.488V13.12C26.488 12.7787 26.5787 12.5067 26.76 12.304C26.952 12.1013 27.1973 12 27.496 12H28.936C29.2453 12 29.4907 12.1013 29.672 12.304C29.8533 12.5067 29.944 12.7787 29.944 13.12V18.336ZM22.36 18.336C22.36 18.688 22.264 18.96 22.072 19.152C21.88 19.344 21.64 19.4027 21.352 19.328C20.9467 19.232 20.5733 19.0827 20.232 18.88C19.8907 18.6667 19.624 18.4213 19.432 18.144C19.2507 18.4213 18.9893 18.6667 18.648 18.88C18.3067 19.0827 17.9333 19.232 17.528 19.328C17.2507 19.4027 17.016 19.344 16.824 19.152C16.632 18.96 16.536 18.688 16.536 18.336V16.16C16.536 16.032 16.568 15.904 16.632 15.776C16.696 15.648 16.808 15.4933 16.968 15.312C17.064 15.1947 17.1387 15.0453 17.192 14.864C17.2453 14.6827 17.272 14.4373 17.272 14.128V13.12C17.272 12.7787 17.3627 12.5067 17.544 12.304C17.736 12.1013 17.9813 12 18.28 12H20.6C20.9093 12 21.1547 12.1013 21.336 12.304C21.5173 12.5067 21.608 12.7787 21.608 13.12V14.128C21.608 14.4373 21.6347 14.6827 21.688 14.864C21.752 15.0453 21.832 15.1947 21.928 15.312C22.216 15.6427 22.36 15.9253 22.36 16.16V18.336ZM25.608 22.832C24.84 22.672 24.0507 22.592 23.24 22.592C22.4293 22.592 21.64 22.672 20.872 22.832V23.216C21.64 23.056 22.4293 22.976 23.24 22.976C24.0507 22.976 24.84 23.056 25.608 23.216V22.832Z" stroke="#171833" style="stroke:#171833;stroke:color(display-p3 0.0902 0.0941 0.2000);stroke-opacity:1;" stroke-width="4" mask="url(#path-2-outside-1_105_338)"/>
<path d="M41.3907 1.97801L40.7989 2.46401C40.6981 2.55401 40.5789 2.70002 40.3773 2.70002C39.2213 2.70002 40.282 2.58087 40.2276 2.55387C40.1664 2.52687 40.1222 2.49448 40.0949 2.45668C40.0677 2.41889 40.0439 2.38109 40.0235 2.3433C39.9487 2.18132 39.4702 1.74002 39.9742 1.65002C40.4782 1.56002 41.345 0.925012 41.345 0.925012C41.5373 0.772012 41.8294 0.700012 41.9518 0.700012C42.2103 0.700012 42.3871 0.762104 42.4824 0.886289C42.5844 1.01047 42.6354 1.16975 42.6354 1.36413V6.36121C42.6354 6.52319 42.5776 6.63657 42.4619 6.70136C42.3463 6.77155 42.2001 6.80935 42.0232 6.81475C41.8668 6.82015 41.7206 6.78505 41.5845 6.70946C41.4553 6.63387 41.3907 6.51509 41.3907 6.35311V1.97801Z" fill="#F87C56" style="fill:#F87C56;fill:color(display-p3 0.9725 0.4863 0.3373);fill-opacity:1;"/>
<path d="M46.8887 6.80665C46.3581 6.80665 45.9126 6.72026 45.5521 6.54748C45.1984 6.3747 44.9128 6.14523 44.6951 5.85907C44.4775 5.5783 44.321 5.25434 44.2258 4.88719C44.1306 4.51464 44.083 4.13128 44.083 3.73713C44.083 3.34298 44.1306 2.96233 44.2258 2.59518C44.321 2.22802 44.4775 1.90406 44.6951 1.6233C44.9128 1.34253 45.1984 1.11846 45.5521 0.951081C45.9126 0.783702 46.3581 0.700012 46.8887 0.700012C47.4056 0.700012 47.8443 0.783702 48.2048 0.951081C48.5653 1.11846 48.8578 1.34253 49.0822 1.6233C49.2999 1.90406 49.4563 2.22802 49.5516 2.59518C49.6536 2.96233 49.7046 3.34298 49.7046 3.73713C49.7046 4.13128 49.6536 4.51194 49.5516 4.87909C49.4563 5.24624 49.2965 5.5729 49.072 5.85907C48.8476 6.14523 48.5551 6.3747 48.1946 6.54748C47.8409 6.72026 47.4056 6.80665 46.8887 6.80665ZM46.8887 5.87527C47.1948 5.87527 47.4464 5.81047 47.6437 5.68089C47.8477 5.54591 48.011 5.37313 48.1334 5.16256C48.2558 4.95738 48.3409 4.72791 48.3885 4.47414C48.4361 4.22037 48.4599 3.9747 48.4599 3.73713C48.4599 3.53196 48.4395 3.30789 48.3987 3.06492C48.3579 2.81655 48.283 2.58438 48.1742 2.3684C48.0586 2.15783 47.8953 1.98235 47.6845 1.84197C47.4804 1.69619 47.2152 1.6233 46.8887 1.6233C46.569 1.6233 46.3071 1.68809 46.1031 1.81767C45.9058 1.94726 45.7494 2.11194 45.6338 2.31171C45.5113 2.51689 45.4263 2.74636 45.3787 3.00012C45.3379 3.24849 45.3175 3.49416 45.3175 3.73713C45.3175 3.94231 45.3379 4.16908 45.3787 4.41745C45.4195 4.66582 45.4977 4.89799 45.6134 5.11396C45.7222 5.32993 45.8786 5.51081 46.0827 5.65659C46.2935 5.80238 46.5622 5.87527 46.8887 5.87527Z" fill="#F87C56" style="fill:#F87C56;fill:color(display-p3 0.9725 0.4863 0.3373);fill-opacity:1;"/>
<path d="M59.3463 7.21601C59.3463 7.351 59.2783 7.44916 59.1423 7.51935C59.0063 7.58955 58.86 7.62464 58.7036 7.62464C58.5471 7.62464 58.4043 7.58684 58.2751 7.51125C58.1458 7.44106 58.0812 7.34118 58.0812 7.21159V1.28769C58.0812 1.1581 58.1458 1.05822 58.2751 0.988026C58.4043 0.912435 58.5471 0.87464 58.7036 0.87464C58.86 0.87464 59.0063 0.909736 59.1423 0.979927C59.2783 1.05012 59.3463 1.15271 59.3463 1.28769V7.21601ZM55.2041 2.72931C55.2041 2.43774 55.1157 2.22447 54.9388 2.08949C54.7688 1.94911 54.4729 1.87891 54.0512 1.87891H51.6026C51.4257 1.87891 51.2897 1.83032 51.1945 1.73313C51.106 1.63595 51.0618 1.52526 51.0618 1.40107C51.0618 1.27689 51.106 1.1716 51.1945 1.08521C51.2897 0.993425 51.4257 0.947531 51.6026 0.947531H54.2246C54.966 0.947531 55.5238 1.10411 55.8979 1.41727C56.2788 1.73043 56.4692 2.17048 56.4692 2.73741V6.72464C56.4692 7.09142 56.1017 7.23235 55.8497 7.23235C55.5426 7.23235 55.2041 7.07245 55.2041 6.72464V2.72931Z" fill="#F87C56" style="fill:#F87C56;fill:color(display-p3 0.9725 0.4863 0.3373);fill-opacity:1;"/>
<defs>
<linearGradient id="paint0_linear_105_338" x1="1.39197" y1="3.716" x2="58.623" y2="3.716" gradientUnits="userSpaceOnUse">
<stop offset="0.505" stop-color="#FF6D6A" style="stop-color:#FF6D6A;stop-color:color(display-p3 1.0000 0.4275 0.4157);stop-opacity:1;"/>
<stop offset="0.755" stop-color="#FDD26E" style="stop-color:#FDD26E;stop-color:color(display-p3 0.9922 0.8235 0.4314);stop-opacity:1;"/>
<stop offset="1" stop-color="#F87C56" style="stop-color:#F87C56;stop-color:color(display-p3 0.9725 0.4863 0.3373);stop-opacity:1;"/>
</linearGradient>
<linearGradient id="paint1_linear_105_338" x1="1.39197" y1="3.716" x2="58.623" y2="3.716" gradientUnits="userSpaceOnUse">
<stop offset="0.505" stop-color="#FF6D6A" style="stop-color:#FF6D6A;stop-color:color(display-p3 1.0000 0.4275 0.4157);stop-opacity:1;"/>
<stop offset="0.755" stop-color="#FDD26E" style="stop-color:#FDD26E;stop-color:color(display-p3 0.9922 0.8235 0.4314);stop-opacity:1;"/>
<stop offset="1" stop-color="#F87C56" style="stop-color:#F87C56;stop-color:color(display-p3 0.9725 0.4863 0.3373);stop-opacity:1;"/>
</linearGradient>
<linearGradient id="paint2_linear_105_338" x1="1.39197" y1="3.716" x2="58.623" y2="3.716" gradientUnits="userSpaceOnUse">
<stop offset="0.505" stop-color="#FF6D6A" style="stop-color:#FF6D6A;stop-color:color(display-p3 1.0000 0.4275 0.4157);stop-opacity:1;"/>
<stop offset="0.755" stop-color="#FDD26E" style="stop-color:#FDD26E;stop-color:color(display-p3 0.9922 0.8235 0.4314);stop-opacity:1;"/>
<stop offset="1" stop-color="#F87C56" style="stop-color:#F87C56;stop-color:color(display-p3 0.9725 0.4863 0.3373);stop-opacity:1;"/>
</linearGradient>
<linearGradient id="paint3_linear_105_338" x1="1.39197" y1="3.716" x2="40" y2="3.716" gradientUnits="userSpaceOnUse">
<stop offset="0.505" stop-color="#FF6D6A" style="stop-color:#FF6D6A;stop-color:color(display-p3 1.0000 0.4275 0.4157);stop-opacity:1;"/>
<stop offset="0.755" stop-color="#FDD26E" style="stop-color:#FDD26E;stop-color:color(display-p3 0.9922 0.8235 0.4314);stop-opacity:1;"/>
<stop offset="1" stop-color="#F87C56" style="stop-color:#F87C56;stop-color:color(display-p3 0.9725 0.4863 0.3373);stop-opacity:1;"/>
</linearGradient>
</defs>
</svg>
