<svg width="24" height="24" viewBox="0 0 24 24" fill="none" xmlns="http://www.w3.org/2000/svg">
<path d="M18.75 13.5H5.25V21.75C5.25 22.1478 5.40804 22.5294 5.68934 22.8107C5.97064 23.092 6.35218 23.25 6.75 23.25H17.25C17.6478 23.25 18.0294 23.092 18.3107 22.8107C18.592 22.5294 18.75 22.1478 18.75 21.75V13.5Z" fill="#FDD26E" stroke="#292E33" style="fill:#FDD26E;fill:color(display-p3 0.9922 0.8235 0.4314);fill-opacity:1;stroke:#292E33;stroke:color(display-p3 0.1608 0.1804 0.2000);stroke-opacity:1;" stroke-width="1.5" stroke-linecap="round" stroke-linejoin="round"/>
<path d="M4.5 9H19.5C19.5 9 20.25 9 20.25 9.75V12.75C20.25 12.75 20.25 13.5 19.5 13.5H4.5C4.5 13.5 3.75 13.5 3.75 12.75V9.75C3.75 9.75 3.75 9 4.5 9Z" fill="#F87C56" stroke="#292E33" style="fill:#F87C56;fill:color(display-p3 0.9725 0.4863 0.3373);fill-opacity:1;stroke:#292E33;stroke:color(display-p3 0.1608 0.1804 0.2000);stroke-opacity:1;" stroke-width="1.5" stroke-linecap="round" stroke-linejoin="round"/>
<path d="M12 9V23.25" stroke="#292E33" style="stroke:#292E33;stroke:color(display-p3 0.1608 0.1804 0.2000);stroke-opacity:1;" stroke-width="1.5" stroke-linecap="round" stroke-linejoin="round"/>
<path d="M12 2.25V0.75" stroke="#292E33" style="stroke:#292E33;stroke:color(display-p3 0.1608 0.1804 0.2000);stroke-opacity:1;" stroke-width="1.5" stroke-linecap="round" stroke-linejoin="round"/>
<path d="M17.25 3.311L18.311 2.25" stroke="#292E33" style="stroke:#292E33;stroke:color(display-p3 0.1608 0.1804 0.2000);stroke-opacity:1;" stroke-width="1.5" stroke-linecap="round" stroke-linejoin="round"/>
<path d="M20.3069 6.28689L21.6929 5.71289" stroke="#292E33" style="stroke:#292E33;stroke:color(display-p3 0.1608 0.1804 0.2000);stroke-opacity:1;" stroke-width="1.5" stroke-linecap="round" stroke-linejoin="round"/>
<path d="M6.74996 3.311L5.68896 2.25" stroke="#292E33" style="stroke:#292E33;stroke:color(display-p3 0.1608 0.1804 0.2000);stroke-opacity:1;" stroke-width="1.5" stroke-linecap="round" stroke-linejoin="round"/>
<path d="M3.69313 6.28689L2.30713 5.71289" stroke="#292E33" style="stroke:#292E33;stroke:color(display-p3 0.1608 0.1804 0.2000);stroke-opacity:1;" stroke-width="1.5" stroke-linecap="round" stroke-linejoin="round"/>
</svg>
