<svg width="24" height="24" viewBox="0 0 24 24" fill="none" xmlns="http://www.w3.org/2000/svg">
<path d="M13.9191 7.62677H20.8421C20.9637 7.62661 21.0827 7.66141 21.1847 7.72695C21.2868 7.79249 21.3676 7.88597 21.4172 7.9961C21.467 8.10622 21.4834 8.22828 21.4648 8.34752C21.4461 8.46676 21.3931 8.57807 21.312 8.66802L17.9554 12.4165C17.7524 12.6473 17.6405 12.9431 17.6405 13.2495C17.6405 13.5559 17.7524 13.8518 17.9554 14.0825L21.312 17.831C21.3931 17.921 21.4461 18.0323 21.4648 18.1516C21.4834 18.2708 21.467 18.3928 21.4172 18.5029C21.3676 18.613 21.2868 18.7066 21.1847 18.7721C21.0827 18.8376 20.9637 18.8724 20.8421 18.8723H9.09394C8.7601 18.8723 8.43993 18.7407 8.20388 18.5063C7.96782 18.272 7.83521 17.9541 7.83521 17.6228V15.1238" fill="#FDD26E" style="fill:#FDD26E;fill:color(display-p3 0.9922 0.8235 0.4314);fill-opacity:1;"/>
<path d="M13.9191 7.62677H20.8421C20.9637 7.62661 21.0827 7.66141 21.1847 7.72695C21.2868 7.79249 21.3676 7.88597 21.4172 7.9961C21.467 8.10622 21.4834 8.22828 21.4648 8.34752C21.4461 8.46676 21.3931 8.57807 21.312 8.66802L17.9554 12.4165C17.7524 12.6473 17.6405 12.9431 17.6405 13.2495C17.6405 13.5559 17.7524 13.8518 17.9554 14.0825L21.312 17.831C21.3931 17.921 21.4461 18.0323 21.4648 18.1516C21.4834 18.2708 21.467 18.3928 21.4172 18.5029C21.3676 18.613 21.2868 18.7066 21.1847 18.7721C21.0827 18.8376 20.9637 18.8724 20.8421 18.8723H9.09394C8.7601 18.8723 8.43993 18.7407 8.20388 18.5063C7.96782 18.272 7.83521 17.9541 7.83521 17.6228V15.1238" stroke="#292E33" style="stroke:#292E33;stroke:color(display-p3 0.1608 0.1804 0.2000);stroke-opacity:1;" stroke-width="1.5" stroke-linecap="round" stroke-linejoin="round"/>
<path d="M2.62891 3.87823H12.7138C13.0481 3.87823 13.3688 4.00988 13.6052 4.24421C13.8416 4.47853 13.9744 4.79635 13.9744 5.12773V15.1237H2.62891" fill="#F87C56" style="fill:#F87C56;fill:color(display-p3 0.9725 0.4863 0.3373);fill-opacity:1;"/>
<path d="M2.62891 3.87823H12.7138C13.0481 3.87823 13.3688 4.00988 13.6052 4.24421C13.8416 4.47853 13.9744 4.79635 13.9744 5.12773V15.1237H2.62891" stroke="#292E33" style="stroke:#292E33;stroke:color(display-p3 0.1608 0.1804 0.2000);stroke-opacity:1;" stroke-width="1.5" stroke-linecap="round" stroke-linejoin="round"/>
<path d="M10.1257 18.8722L13.9742 15.1237" stroke="#292E33" style="stroke:#292E33;stroke:color(display-p3 0.1608 0.1804 0.2000);stroke-opacity:1;" stroke-width="1.5" stroke-linecap="round" stroke-linejoin="round"/>
<path d="M2.62891 2.62872V21.3712" stroke="#292E33" style="stroke:#292E33;stroke:color(display-p3 0.1608 0.1804 0.2000);stroke-opacity:1;" stroke-width="1.5" stroke-linecap="round" stroke-linejoin="round"/>
</svg>
