<svg width="14" height="15" viewBox="0 0 14 15" fill="none" xmlns="http://www.w3.org/2000/svg">
<path d="M13.125 6.07812C13.125 9.90625 7.44898 13.0048 7.20727 13.1328C7.14356 13.1671 7.07234 13.185 7 13.185C6.92766 13.185 6.85644 13.1671 6.79273 13.1328C6.55102 13.0048 0.875 9.90625 0.875 6.07812C0.876013 5.17919 1.23356 4.31736 1.86921 3.68171C2.50486 3.04606 3.36669 2.68851 4.26562 2.6875C5.39492 2.6875 6.38367 3.17312 7 3.99398C7.61633 3.17312 8.60508 2.6875 9.73438 2.6875C10.6333 2.68851 11.4951 3.04606 12.1308 3.68171C12.7664 4.31736 13.124 5.17919 13.125 6.07812Z" fill="#98A5B3" style="fill:#98A5B3;fill:color(display-p3 0.5961 0.6471 0.7020);fill-opacity:1;"/>
</svg>
